<svg width="127" height="126" viewBox="0 0 127 126" fill="none" xmlns="http://www.w3.org/2000/svg">
<path fill-rule="evenodd" clip-rule="evenodd" d="M15.7406 0.34867C6.2317 2.34699 -0.595713 11.1711 0.0545294 20.6226C0.379515 25.3454 1.61446 28.2651 5.39517 33.2489C6.74434 35.0275 10.4323 40.5041 13.5905 45.4188C16.7484 50.3333 19.4302 54.3544 19.5496 54.3544C19.6692 54.3544 22.2229 50.5302 25.2244 45.8559C28.2263 41.1818 31.9148 35.7052 33.4217 33.6859C37.8453 27.7573 38.9777 24.8754 38.9777 19.5443C38.9777 15.8019 38.5227 13.8452 36.8918 10.5698C35.4372 7.64874 32.0633 4.1098 29.2483 2.55177C25.234 0.329905 19.9387 -0.53355 15.7406 0.34867ZM58.03 0.149871C53.833 0.516194 48.4597 1.54799 44.6172 2.72528C42.6238 3.33609 38.5853 4.84815 38.5853 4.98359C38.5853 5.03036 39.0623 5.7864 39.6451 6.66345C42.6206 11.1404 44.0154 17.4018 43.2316 22.7626C42.5757 27.2474 41.0503 30.702 37.7866 35.0941L35.6286 37.998L45.7113 42.0281C53.2874 45.0566 55.8974 46.2162 56.2101 46.6932C56.5898 47.2728 56.5253 48.1387 55.472 56.6204C54.7497 62.4356 54.1718 66.1399 53.9271 66.5201C53.7119 66.8543 53.2621 67.1931 52.9274 67.2728C52.5928 67.3528 46.7573 67.8752 39.9592 68.4335L27.5997 69.449L25.5995 74.4796C24.4994 77.2465 23.3714 79.7052 23.0923 79.9434C22.7608 80.2265 20.3676 80.7411 16.1763 81.4297L9.76684 82.4827L7.28199 84.9781L4.79687 87.4736L6.31193 90.5029C9.31621 96.509 12.7156 101.501 16.5755 105.575L18.5966 107.709L21.404 101.088C22.9479 97.447 24.4605 94.2534 24.7654 93.9918C25.2636 93.564 26.0604 93.5159 32.6309 93.5159H39.9415L41.9891 89.4281C43.3989 86.6129 44.2251 85.2623 44.6423 85.0907C45.2501 84.8403 58.1943 82.6265 59.0066 82.6339C59.2449 82.6361 61.4558 84.1525 63.9206 86.0039L68.4016 89.3702L73.9268 91.4515C76.9657 92.5961 79.503 93.4819 79.565 93.4199C79.6273 93.3576 79.4029 92.2831 79.0668 91.0318C78.2177 87.8725 78.209 81.6135 79.0491 78.5187C80.3869 73.5917 82.8567 69.378 86.3813 66.0107C96.61 56.2383 112.604 56.3074 122.511 66.1668C123.724 67.3732 124.914 68.6587 125.157 69.0237C125.4 69.3884 125.672 69.613 125.763 69.5227C126.12 69.1656 126.214 60.8846 125.898 57.6179C125.603 54.5625 124.999 50.6499 124.629 49.3973C124.509 48.9921 124.046 49.1503 121.247 50.5531C119.464 51.4473 117.756 52.1788 117.453 52.1788C117.15 52.1788 114.962 51.2071 112.59 50.0198L108.278 47.8607L95.7999 48.9265C88.9371 49.5126 83.0156 49.9947 82.6416 49.9977C82.1864 50.0013 79.3069 48.1101 73.9391 44.2815C69.5266 41.1347 65.7639 38.3578 65.5768 38.1106C65.3899 37.8634 65.2368 37.406 65.2368 37.0943C65.2368 36.7824 66.1593 34.2249 67.2868 31.411L69.3371 26.2947L64.0234 17.776C60.8399 12.672 58.7099 8.9873 58.7099 8.58345C58.7099 8.13527 59.6816 6.69146 61.6081 4.27623C63.2021 2.27819 64.6244 0.49063 64.7688 0.303525C64.9757 0.0356503 64.4041 -0.0266274 62.0745 0.00927059C60.4485 0.0345623 58.6283 0.0976558 58.03 0.149871ZM67.1106 4.35374C65.3913 6.50109 63.8955 8.40586 63.7862 8.58617C63.6679 8.7817 65.6782 12.257 68.7635 17.1905C71.6103 21.7428 73.9396 25.6948 73.9402 25.973C73.9404 26.2515 73.0677 28.6591 72.0006 31.3237C70.1461 35.954 70.083 36.1841 70.572 36.5333C70.8535 36.7343 73.8374 38.8699 77.2028 41.2792C83.1001 45.5012 83.3612 45.6549 84.4096 45.5208C85.0079 45.4444 90.8296 44.9413 97.3465 44.4028L109.196 43.4238L113.324 45.4917L117.453 47.5597L120.437 46.0631L123.421 44.5668L122.595 42.2272C117.879 28.8669 108.35 16.9689 96.4618 9.59811C89.2175 5.10678 79.1035 1.41555 71.8839 0.628511L70.2364 0.449021L67.1106 4.35374ZM22.422 4.60557C25.0466 5.07823 28.2342 6.77577 30.2126 8.75423C33.2623 11.8039 34.6341 15.1511 34.6341 19.5443C34.6341 23.9067 33.261 27.286 30.2755 30.2713C27.2902 33.2568 23.9109 34.6299 19.5485 34.6299C15.1518 34.6299 11.8971 33.297 8.79677 30.2269C2.86708 24.3554 2.88721 14.7919 8.84165 8.83745C12.4663 5.21257 17.3478 3.69153 22.422 4.60557ZM16.997 8.95113C15.2761 9.38354 12.8269 10.8331 11.6379 12.1229C11.0273 12.7854 10.1402 14.1452 9.66703 15.1441C8.88761 16.7891 8.80629 17.206 8.80629 19.5584C8.80629 22.0101 8.8634 22.2715 9.82204 24.211C11.0453 26.6864 12.6199 28.2281 15.1483 29.4258C16.7911 30.2041 17.2121 30.2865 19.5485 30.2865C21.8848 30.2865 22.3058 30.2041 23.9487 29.4258C26.4771 28.2281 28.0517 26.6864 29.2749 24.211C30.2347 22.2693 30.2907 22.0123 30.2907 19.5443C30.2907 17.0763 30.2347 16.8193 29.2749 14.8776C27.4373 11.1591 24.1725 8.97724 20.1601 8.78632C19.001 8.73112 17.5776 8.80536 16.997 8.95113ZM3.27583 43.0004C2.01179 46.8042 1.31368 49.6692 0.607956 53.9465C-0.0792722 58.1137 -0.0811758 67.6345 0.604149 72.0217C1.06076 74.9433 2.801 82.298 3.10858 82.6056C3.185 82.682 4.21543 81.7827 5.39816 80.6067L7.54878 78.4686L13.6797 77.4447C17.0517 76.8818 19.9107 76.3591 20.0337 76.2832C20.1563 76.2073 21.1647 73.8585 22.2743 71.0636C23.5661 67.8108 24.4907 65.8554 24.8437 65.6299C25.2027 65.401 29.7207 64.9223 37.7694 64.2604C44.5751 63.7007 50.1621 63.2316 50.185 63.218C50.3876 63.097 51.9029 49.3489 51.7305 49.1966C51.4194 48.9216 33.63 41.8435 33.2515 41.844C33.0847 41.8443 30.3432 45.9138 27.1589 50.887C23.9745 55.8603 21.1737 60.0878 20.9346 60.2811C20.2412 60.8427 19.2855 60.9782 18.6007 60.6116C18.2358 60.4163 15.1605 55.9049 11.3474 49.9705C7.70678 44.3046 4.65029 39.6689 4.55565 39.6689C4.46073 39.6689 3.88473 41.1679 3.27583 43.0004ZM100.319 63.4521C94.9201 64.6172 90.5114 67.288 87.3788 71.2918C82.7346 77.2274 81.4545 84.7951 83.8858 91.9432C84.7615 94.518 85.2668 95.348 90.3896 102.626C95.9443 110.518 99.6752 116.119 102.21 120.371C103.303 122.204 104.291 123.703 104.406 123.703C104.521 123.703 105.422 122.314 106.408 120.616C108.889 116.344 113.44 109.492 118.23 102.815C123.091 96.0396 123.759 94.9771 124.683 92.5425C127.524 85.0556 126.162 77.2405 120.851 70.5692C118.705 67.873 113.73 64.7515 109.973 63.7445C107.682 63.1301 102.533 62.9743 100.319 63.4521ZM108.035 67.8137C118.013 69.9276 124.203 80.7196 120.895 90.2323C119.936 92.9902 118.694 94.9708 116.624 97.0396C114.568 99.0964 112.606 100.331 109.792 101.341C108.07 101.958 107.351 102.058 104.534 102.069C101.892 102.08 100.909 101.968 99.3671 101.479C90.7323 98.7434 85.542 89.9391 87.3987 81.1768C89.3671 71.8852 98.7065 65.8374 108.035 67.8137ZM101.165 72.1895C94.2699 74.0439 90.0037 81.1836 91.7608 87.9294C93.5802 94.9145 100.709 99.2234 107.514 97.4508C114.479 95.6366 118.808 88.501 117.046 81.7383C115.21 74.6896 107.997 70.3522 101.165 72.1895ZM51.8874 88.1402L47.1045 88.9587L45.0885 93.0332C43.9798 95.2741 42.831 97.2786 42.536 97.4875C42.1093 97.7896 40.5173 97.8671 34.7483 97.8671H27.4969L24.7246 104.326L21.952 110.785L23.1299 111.807C29.3187 117.175 38.6514 121.902 47.4619 124.131C53.3821 125.629 56.4823 126 63.0612 126C71.3634 126 77.834 124.858 85.2255 122.087C87.9211 121.077 94.4053 117.996 94.9688 117.457C95.2141 117.223 92.5851 113.259 86.5771 104.802L82.7129 99.3629L74.5135 96.3039L66.3143 93.245L62.3332 90.253C59.1557 87.8647 58.1826 87.2672 57.5111 87.2914C57.0488 87.308 54.518 87.6901 51.8874 88.1402Z" fill="white"/>
<circle cx="104.172" cy="84.8399" r="13.44" fill="#EC4762"/>
<circle cx="104.172" cy="84.84" r="10.08" fill="white"/>
<circle cx="19.7521" cy="19.7399" r="11.34" fill="#EC4762"/>
<circle cx="19.3317" cy="20.16" r="9.24" fill="white"/>
</svg>
