<svg width="114" height="135" viewBox="0 0 114 135" fill="none" xmlns="http://www.w3.org/2000/svg">
<path fill-rule="evenodd" clip-rule="evenodd" d="M56.0602 0.223621C55.7559 0.347315 55.2546 0.771409 54.9463 1.1657C54.4216 1.83692 54.386 2.18083 54.386 6.57712C54.386 9.15913 54.4987 11.57 54.6363 11.9345C55.243 13.5398 57.5824 14.0114 58.8106 12.7758L59.4968 12.0853V6.7947V1.50434L58.6408 0.734749C57.774 -0.0446025 57.0653 -0.184912 56.0602 0.223621ZM17.1978 16.4215C16.4315 16.8487 15.8803 17.8003 15.8677 18.7171C15.8549 19.6808 16.9145 21.0272 20.2588 24.2952C23.0008 26.9745 23.2199 27.1304 24.2473 27.1304C25.7771 27.1304 26.8664 26.0343 26.8664 24.4948C26.8664 23.461 26.7115 23.2405 24.0489 20.4812C19.8394 16.1192 18.8212 15.5158 17.1978 16.4215ZM93.8045 16.8076C93.2424 17.2222 91.5146 18.8756 89.9649 20.4812C87.3023 23.2405 87.1474 23.461 87.1474 24.4948C87.1474 26.0343 88.2367 27.1304 89.7665 27.1304C90.7939 27.1304 91.013 26.9745 93.755 24.2952C97.0159 21.1084 98.1553 19.6845 98.1553 18.7954C98.1553 17.3097 96.9184 16.0533 95.4557 16.0533C95.1098 16.0533 94.3667 16.3927 93.8045 16.8076ZM54.1239 21.2368C49.8586 21.6456 45.4476 22.8074 42.0145 24.4265C40.7732 25.0117 39.6289 25.7331 39.4711 26.0295C38.9643 26.9827 39.1249 28.4129 39.8174 29.1097C40.8702 30.1689 41.6441 30.2016 43.8816 29.2812C49.3546 27.0294 51.932 26.4853 57.1379 26.4837C60.8153 26.4824 63.6043 26.8875 66.4123 27.8311C77.157 31.4417 84.9301 40.2013 87.322 51.3944C88.0312 54.7144 87.9651 60.9846 87.187 64.1858C85.8771 69.5751 85.0984 71.1214 79.437 79.5785C76.9473 83.2972 74.23 87.5086 73.3981 88.9368C70.3303 94.205 68.1995 99.4668 67.4811 103.549L67.1446 105.461H56.9946H46.8448L46.6708 104.208C46.3736 102.072 45.2479 98.4314 43.9925 95.5466C42.2354 91.5093 39.7167 87.2338 34.5968 79.5977C29.8435 72.5087 29.2187 71.4334 28.0911 68.4057C26.6845 64.6281 26.2513 62.14 26.2313 57.7242C26.2049 51.8639 26.9938 48.4667 29.6335 43.0734C30.418 41.4707 31.0593 39.9278 31.0588 39.6448C31.057 38.6286 30.0906 37.455 29.1023 37.2685C27.0981 36.8901 26.1393 37.9218 23.9299 42.8334C21.8397 47.4797 20.967 51.851 20.9827 57.5923C20.9995 63.7491 22.0885 68.5164 24.6415 73.6103C25.8733 76.0681 26.0348 76.3242 31.0944 83.8344C32.9023 86.518 34.9938 89.7443 35.7421 91.0042C38.6262 95.8602 40.9645 101.512 41.425 104.741C41.5998 105.967 41.5731 106.034 40.4165 107.278C39.7503 107.995 39.1045 109.006 38.9459 109.58C38.5701 110.942 38.5764 121.101 38.9535 122.472C39.1367 123.138 39.7165 124.004 40.5248 124.818C41.7642 126.067 41.8056 126.158 41.8056 127.643C41.8056 130.818 43.4977 133.44 46.2171 134.48C47.4793 134.963 48.2564 135 57.0069 135C65.7573 135 66.5344 134.963 67.7967 134.48C70.5161 133.44 72.2082 130.818 72.2082 127.643C72.2082 126.158 72.2496 126.067 73.489 124.818C74.2973 124.004 74.8771 123.138 75.0603 122.472C75.4374 121.101 75.4437 110.942 75.0679 109.58C74.9093 109.006 74.2635 107.995 73.5973 107.278C72.4407 106.034 72.4139 105.967 72.5888 104.741C73.0493 101.512 75.3876 95.8602 78.2717 91.0042C79.02 89.7443 81.1115 86.518 82.9194 83.8344C87.9898 76.3084 88.1426 76.0655 89.3603 73.6114C93.2366 65.7989 94.1468 57.0986 91.988 48.4933C89.4926 38.5469 82.6861 29.931 73.5876 25.2024C67.5495 22.0642 60.4917 20.6263 54.1239 21.2368ZM32.7181 31.0311C30.8987 31.308 30.1313 34.0361 31.4886 35.4023C32.4442 36.3639 34.1171 36.3776 35.0573 35.4318C36.9129 33.5643 35.3534 30.6305 32.7181 31.0311ZM52.9031 51.7666C49.4107 52.4378 46.5243 53.6397 43.6402 55.6227C41.6415 56.9971 39.7697 58.8728 39.6599 59.6113C39.4048 61.3258 40.481 62.7353 42.0451 62.7353C43.0728 62.7353 43.6421 62.4164 45.4749 60.8136C48.0811 58.5349 53.2721 56.6692 57.0069 56.6692C60.7417 56.6692 65.9327 58.5349 68.5389 60.8136C70.3717 62.4164 70.941 62.7353 71.9687 62.7353C72.6449 62.7353 73.12 62.5372 73.5983 62.0556C74.8684 60.7778 74.6824 59.4016 73.0215 57.787C70.4307 55.2683 66.5926 53.1383 62.904 52.1725C60.2013 51.4649 55.4708 51.2729 52.9031 51.7666ZM1.57455 55.0723C-0.0939205 55.7596 -0.53738 57.9605 0.73455 59.2407L1.4553 59.966H6.68534H11.9154L12.6015 59.2755C13.8294 58.0396 13.3608 55.6855 11.7655 55.0749C10.9687 54.7703 2.31365 54.7679 1.57455 55.0723ZM102.087 55.1588C101.726 55.3389 101.215 55.9308 100.951 56.4735C100.486 57.4304 100.486 57.4905 100.951 58.4474C101.694 59.9744 102.153 60.0897 107.521 60.0939L112.3 60.0979L113.15 59.3335C113.853 58.7011 114 58.3783 114 57.4605C114 56.5426 113.853 56.2198 113.15 55.5874L112.3 54.8231L107.521 54.827C104.245 54.8297 102.536 54.9338 102.087 55.1588ZM54.1962 62.3425C50.7392 63.0984 47.0474 65.7469 47.0474 67.471C47.0474 70.0493 49.3913 71.0275 51.573 69.3596C53.5803 67.8249 54.8404 67.3615 57.0069 67.3615C59.1733 67.3615 60.4335 67.8249 62.4408 69.3596C64.6225 71.0275 66.9664 70.0493 66.9664 67.471C66.9664 65.1129 61.0806 61.9039 56.8759 61.9696C56.2992 61.9786 55.0934 62.1466 54.1962 62.3425ZM55.2771 73.3904C54.0681 74.607 54.0681 75.6551 55.2771 76.8717C55.9192 77.5179 56.4025 77.7684 57.0069 77.7684C57.6113 77.7684 58.0946 77.5179 58.7367 76.8717C59.3788 76.2256 59.6278 75.7392 59.6278 75.131C59.6278 74.5229 59.3788 74.0365 58.7367 73.3904C58.0946 72.7442 57.6113 72.4936 57.0069 72.4936C56.4025 72.4936 55.9192 72.7442 55.2771 73.3904ZM19.6348 91.2851C17.543 93.3903 16.091 95.0679 15.9822 95.5049C15.4798 97.5244 17.1934 99.2487 19.2002 98.7431C19.6345 98.6337 21.3017 97.1726 23.3937 95.0677C26.7597 91.6812 26.8664 91.5396 26.8664 90.4533C26.8664 88.8727 25.791 87.7906 24.2203 87.7906C23.1408 87.7906 23 87.8979 19.6348 91.2851ZM87.9135 88.5615C87.307 89.1718 87.1474 89.566 87.1474 90.4533C87.1474 91.5396 87.2541 91.6812 90.6201 95.0677C92.7121 97.1726 94.3793 98.6337 94.8136 98.7431C96.8204 99.2487 98.534 97.5244 98.0316 95.5049C97.9228 95.0679 96.4708 93.3903 94.3791 91.2851C91.0138 87.8979 90.873 87.7906 89.7935 87.7906C88.9118 87.7906 88.52 87.9512 87.9135 88.5615ZM70.0604 112.121L70.1403 113.373H65.6441H61.1479L60.2568 114.27C59.6147 114.916 59.3657 115.403 59.3657 116.011C59.3657 116.619 59.6147 117.105 60.2568 117.751L61.1479 118.648H65.6441H70.1403L70.0604 119.901L69.9804 121.154H57.0069H44.0334L43.9618 116.283C43.9222 113.604 43.9485 111.259 44.02 111.072C44.1241 110.798 46.7038 110.744 57.0651 110.799L69.9804 110.868L70.0604 112.121ZM53.4393 113.632C52.62 113.965 51.7651 115.188 51.7651 116.026C51.7651 117.037 52.9075 118.329 53.981 118.532C56.907 119.084 58.1839 115.04 55.5172 113.668C54.8528 113.326 54.2182 113.315 53.4393 113.632ZM66.9664 127.615C66.9664 128.319 66.7916 128.846 66.4422 129.198C65.9384 129.705 65.5686 129.725 57.0069 129.725C48.4452 129.725 48.0753 129.705 47.5716 129.198C47.2222 128.846 47.0474 128.319 47.0474 127.615V126.56H57.0069H66.9664V127.615Z" fill="white"/>
</svg>
