<svg width="126" height="126" viewBox="0 0 126 126" fill="none" xmlns="http://www.w3.org/2000/svg">
<path fill-rule="evenodd" clip-rule="evenodd" d="M54.4402 0.279884L52.5909 0.525183L52.7342 1.32724C52.813 1.76847 52.9649 2.64457 53.0717 3.27436L53.2658 4.41943L54.3964 4.35785C55.0183 4.32426 55.891 4.23443 56.3357 4.15886C57.0767 4.03265 57.1357 3.95275 57.0422 3.20235C56.9863 2.75221 56.8727 1.83997 56.7898 1.17507C56.7072 0.51017 56.5608 -0.018342 56.4645 0.000487962C56.3682 0.0193179 55.4572 0.145021 54.4402 0.279884ZM46.1878 1.94506C45.3843 2.17153 44.7266 2.46518 44.7266 2.5975C44.7266 2.72956 44.9619 3.62882 45.2493 4.59526C45.6661 5.99631 45.8595 6.32863 46.2023 6.23321C46.4389 6.1673 47.2742 5.93397 48.0587 5.71462L49.4849 5.31614L49.0669 3.46826C48.5858 1.34149 48.4966 1.29416 46.1878 1.94506ZM38.7119 4.57821L36.8905 5.34159L37.5289 6.78717C38.6496 9.32463 38.4445 9.17959 39.9627 8.50782C40.6961 8.18338 41.4888 7.85284 41.7243 7.7732C42.1134 7.6419 42.0923 7.46861 41.4979 5.89682C41.1375 4.94437 40.7731 4.08634 40.6882 3.9899C40.6031 3.89371 39.7139 4.15835 38.7119 4.57821ZM31.3035 8.26507C30.3666 8.79663 29.7478 9.30708 29.8176 9.48978C29.8837 9.66205 30.3556 10.4572 30.8664 11.2567L31.795 12.7102L33.2418 11.8982C34.0375 11.4517 34.7861 11 34.9053 10.8946C35.1238 10.7015 33.3925 7.3424 33.0784 7.34952C32.9856 7.35181 32.1869 7.76378 31.3035 8.26507ZM24.5869 12.8204C23.7834 13.4522 23.1257 14.0382 23.1257 14.1227C23.1257 14.2075 23.6632 14.9416 24.3201 15.7541L25.5147 17.2317L26.1625 16.7604C26.5191 16.5011 27.2009 15.9579 27.6779 15.5533L28.5452 14.8179L27.4372 13.2446C26.8278 12.3794 26.2659 11.6715 26.1887 11.6718C26.1114 11.6718 25.3905 12.1888 24.5869 12.8204ZM57.9413 16.2808C52.4521 16.907 46.6331 18.6763 41.738 21.2069C27.6215 28.5053 18.2606 42.1837 16.5333 58.0368C14.6929 74.9311 22.6492 91.9844 36.8268 101.532C51.0524 111.112 68.945 112.247 84.1165 104.532C93.4829 99.7683 100.689 92.3684 105.168 82.9142C108.064 76.8021 109.394 71.4241 109.697 64.599C110.439 47.8663 101.622 31.4376 87.2563 22.786C85.1625 21.5249 80.3061 19.231 78.3038 18.5572C71.8795 16.395 64.3341 15.5515 57.9413 16.2808ZM102.275 16.622C101.651 17.2465 101.651 17.2472 101.651 22.729V28.2114H103.684H105.717V25.2456V22.2799L106.255 22.7647C107.42 23.8161 110.183 27.347 112.162 30.3127C120.806 43.2746 123.888 59.318 120.706 74.8028C115.499 100.144 94.43 119.024 68.5069 121.579C66.9801 121.729 65.1219 121.852 64.3773 121.852H63.0238V123.926V126L66.1369 125.825C73.2868 125.422 79.7826 124.027 86.0095 121.559C104.365 114.282 118.33 98.8749 123.617 80.0663C128.642 62.1883 125.638 43.1303 115.374 27.775C114.272 26.1256 112.512 23.7456 111.464 22.486L109.557 20.1959L111.703 20.1224L113.85 20.0488V18.0231V15.9973H108.374C102.9 15.9973 102.899 15.9973 102.275 16.622ZM18.3516 18.3595L17.0258 19.7038L18.3684 21.0313C19.1069 21.7613 19.7712 22.3588 19.8451 22.3588C19.9188 22.3588 20.5852 21.7738 21.3259 21.059L22.6728 19.7592L21.3196 18.3872C20.5753 17.6325 19.9016 17.0152 19.822 17.0152C19.7425 17.0152 19.081 17.62 18.3516 18.3595ZM68.4464 20.4504C87.8367 22.9955 102.794 37.9727 105.336 57.3881C108.123 78.6777 94.5086 98.7986 73.669 104.187C52.1304 109.756 29.8161 97.7047 22.6345 76.6237C20.4726 70.278 19.7991 62.5939 20.8446 56.2019C22.4632 46.3042 27.4746 37.2179 34.8799 30.7542C44.2453 22.5794 56.3525 18.8628 68.4464 20.4504ZM13.8055 23.4481C13.5306 23.7586 12.9466 24.4817 12.5074 25.055L11.7092 26.0973L13.3768 27.2984C14.294 27.9592 15.0655 28.4635 15.0914 28.4192C15.1173 28.3747 15.5427 27.8233 16.037 27.1935C17.3875 25.4726 17.4159 25.3919 16.8373 24.9321C16.5529 24.7064 15.867 24.153 15.3128 23.7026L14.3049 22.8835L13.8055 23.4481ZM59.339 24.2899C51.9141 25.3563 46.7601 27.2238 41.3894 30.7936C38.1902 32.9201 33.1597 37.9602 31.0298 41.1725C28.0299 45.6973 25.9882 50.7404 24.9966 56.0746C24.359 59.5032 24.3564 66.3034 24.9912 69.561C26.6098 77.8678 30.3404 84.8667 36.1208 90.4409C41.9441 96.0568 48.258 99.3309 56.2894 100.9C59.5489 101.537 66.3369 101.533 69.7582 100.893C77.8644 99.3749 84.3666 95.9354 90.2324 90.0617C96.0984 84.1883 99.5335 77.6777 101.049 69.561C101.705 66.0469 101.705 59.5887 101.049 56.0746C99.5337 47.9592 96.0994 41.4498 90.2324 35.5723C84.4781 29.8076 78.3142 26.4706 70.5061 24.8927C68.0739 24.4011 61.1621 24.028 59.339 24.2899ZM8.44494 31.2336C7.99335 32.056 7.62385 32.856 7.62385 33.011C7.62385 33.282 10.4078 34.8273 10.896 34.8273C11.1443 34.8273 12.7064 32.212 12.7064 31.7962C12.7064 31.545 9.88382 29.7381 9.4917 29.7381C9.36743 29.7381 8.89653 30.4112 8.44494 31.2336ZM4.93772 38.278C3.93315 40.5526 3.95576 40.6297 5.82767 41.342C6.72678 41.684 7.56261 41.9303 7.6851 41.8893C7.88078 41.8239 9.1443 39.0055 9.14735 38.6276C9.14862 38.4834 7.96159 37.8666 6.40632 37.2037L5.56973 36.8474L4.93772 38.278ZM2.19364 46.2311C1.96543 47.0449 1.7789 47.8983 1.7789 48.1276C1.7789 48.55 2.73747 48.9248 4.61167 49.2348L5.53822 49.3882L5.92704 48.0238C6.60251 45.6543 6.64368 45.7721 4.9555 45.2395C2.70748 44.5306 2.66581 44.5456 2.19364 46.2311ZM75.222 50.6038C75.851 50.7603 76.5511 50.9419 76.7778 51.0073C77.1338 51.1101 76.7757 52.7845 74.1575 63.2641C72.4896 69.9401 71.097 75.4303 71.0627 75.4647C71.0284 75.4988 70.6065 75.4229 70.1252 75.2957C69.6439 75.1685 68.7781 74.942 68.2015 74.7924L67.1532 74.5204L70.2045 62.301C72.7793 51.9895 73.3199 50.1002 73.667 50.2004C73.8934 50.2656 74.593 50.4473 75.222 50.6038ZM39.8895 51.0066C40.8984 51.3063 41.5868 51.7524 42.5873 52.7542C44.2481 54.4171 44.872 56.1952 44.6458 58.6213C44.382 61.4486 43.72 62.6789 40.1439 66.9879L36.8468 70.9605H40.7868H44.7266V72.9962V75.0318H38.2349H31.7429L31.1193 74.4071C29.8863 73.1728 30.0931 72.7733 35.0621 66.7922C37.5739 63.7687 39.8265 60.9221 40.0684 60.4661C40.3431 59.9478 40.5126 59.0432 40.5205 58.0523C40.5325 56.5937 40.4672 56.4011 39.7027 55.6349C38.9874 54.9181 38.6966 54.8023 37.611 54.8023C35.9218 54.8023 34.8247 55.8202 34.6278 57.5703L34.4954 58.7465H32.4954H30.4954V57.7749C30.4954 53.9298 33.6712 50.6872 37.5012 50.6216C38.07 50.6117 39.1447 50.7849 39.8895 51.0066ZM60.3669 51.2285L60.9908 51.8529V59.3712V66.8891H63.0238H65.0569V68.9248V70.9605H63.0238H60.9908V72.9962V75.0318H58.9578H56.9248V72.9962V70.9605H52.4661C48.0707 70.9605 47.9982 70.9516 47.3835 70.3358C47.0338 69.9859 46.7596 69.4139 46.7596 69.0347C46.7596 68.3218 56.8007 51.8865 57.7479 51.0491C58.4732 50.4078 59.6267 50.487 60.3669 51.2285ZM94.9284 51.2285C95.2715 51.572 95.5523 52.128 95.5523 52.4641C95.5523 52.8003 94.9868 54.1509 94.2959 55.4655C91.3287 61.1111 89.4768 68.0406 89.4583 73.5687L89.4532 75.0318H87.382H85.3107L85.4789 72.2615C85.8329 66.4227 87.2451 60.8903 89.919 54.866C89.9658 54.7611 88.5076 54.6751 86.6789 54.6751H83.3541V55.6929V56.7108H81.3211H79.2881V54.282C79.2881 52.0422 79.3366 51.8043 79.9119 51.2285L80.5356 50.6038H87.4202H94.3048L94.9284 51.2285ZM0.64879 53.9522C0.556795 54.6995 0.424649 55.6097 0.355526 55.9746C0.23761 56.597 0.303937 56.6484 1.42083 56.8016C2.07623 56.8917 2.98753 56.9652 3.44598 56.9652C4.3522 56.9652 4.36033 56.9482 4.69604 54.3876L4.85055 53.2094L3.63226 53.0389C2.96237 52.945 2.05463 52.8064 1.61524 52.7305C0.817277 52.5931 0.816261 52.5944 0.64879 53.9522ZM54.6651 63.329C53.5316 65.1497 52.6046 66.6955 52.6046 66.7642C52.6046 66.8329 53.5766 66.8891 54.7647 66.8891H56.9248V63.4539C56.9248 61.5646 56.8798 60.0187 56.8251 60.0187C56.7703 60.0187 55.7982 61.5084 54.6651 63.329ZM0 62.8178V64.8535H2.03303H4.06605V62.9768V61.1002L3.2719 60.9412C2.83506 60.8536 1.92019 60.7821 1.23888 60.7821H0V62.8178ZM1.7789 68.9027C0.222108 69.0691 0.314357 68.8551 0.631763 71.5653L0.807112 73.0611L2.23531 72.8929C4.88079 72.5816 4.87164 72.5878 4.69604 71.2483C4.38067 68.8429 4.31408 68.6678 3.72832 68.7118C3.42489 68.7347 2.54764 68.8205 1.7789 68.9027ZM3.3672 76.7586C2.29503 77.0268 1.7789 77.281 1.7789 77.5403C1.7789 77.8861 2.54383 80.9045 2.6775 81.0862C2.70774 81.1272 3.60456 80.9037 4.67063 80.5895C6.14864 80.1541 6.58218 79.9248 6.49552 79.6246C6.43301 79.4078 6.1959 78.5721 5.96846 77.7673C5.74076 76.9624 5.42005 76.3169 5.25512 76.3326C5.09045 76.3484 4.24089 76.54 3.3672 76.7586ZM5.84495 84.3807C4.93644 84.7379 4.15779 85.0585 4.11485 85.0926C4.00583 85.1794 5.33543 88.3398 5.59616 88.6144C5.82539 88.8558 9.14811 87.41 9.14938 87.0685C9.15065 86.698 7.80505 83.6829 7.64926 83.7074C7.5654 83.7203 6.75346 84.0234 5.84495 84.3807ZM9.08585 91.6646C8.28255 92.1032 7.62487 92.5658 7.62461 92.6923C7.62411 92.8188 8.03351 93.656 8.53439 94.5527C9.4025 96.1069 9.4706 96.1662 9.99563 95.8278C10.2986 95.6326 11.0899 95.1565 11.7542 94.77L12.9623 94.0669L12.0825 92.5012C11.5989 91.6401 11.0553 90.92 10.8747 90.9012C10.694 90.8823 9.88915 91.2259 9.08585 91.6646ZM13.7438 98.1955C11.7329 99.6337 11.7677 99.5329 12.7964 100.936C14.265 102.939 14.2284 102.932 15.8497 101.595C16.6368 100.946 17.2807 100.335 17.2807 100.237C17.2807 100.138 16.7877 99.4223 16.1854 98.6454L15.0899 97.2329L13.7438 98.1955ZM18.4472 104.613L16.9903 105.949L18.4937 107.428L19.9971 108.908L21.3153 107.385L22.6332 105.861L21.3425 104.569C20.6327 103.858 20.0187 103.277 19.9781 103.277C19.9376 103.277 19.2487 103.878 18.4472 104.613ZM24.297 110.053C22.9623 111.677 22.9544 111.64 24.9552 113.111C26.3564 114.141 26.2558 114.176 27.6921 112.162L28.6535 110.814L27.2428 109.717C26.467 109.114 25.7518 108.62 25.6538 108.62C25.5554 108.62 24.945 109.265 24.297 110.053ZM30.8723 114.538C30.3419 115.412 29.8662 116.206 29.8151 116.302C29.7185 116.485 32.7846 118.291 33.1881 118.289C33.5518 118.287 35.1678 114.975 34.9147 114.75C34.7904 114.64 34.0469 114.189 33.2626 113.749L31.8364 112.949L30.8723 114.538ZM37.8316 118.45C37.4113 119.378 37.1612 120.227 37.2758 120.335C37.5475 120.593 40.6921 121.906 40.7937 121.803C41.0125 121.583 42.1741 118.194 42.0674 118.087C41.8961 117.916 39.0578 116.766 38.8021 116.764C38.6885 116.764 38.2519 117.522 37.8316 118.45ZM45.2753 121.247C44.9614 122.314 44.7383 123.212 44.7792 123.243C44.9675 123.381 47.9817 124.142 48.3436 124.142C48.6285 124.142 48.8359 123.743 49.0356 122.811C49.1926 122.079 49.3832 121.231 49.4595 120.927C49.5822 120.437 49.4285 120.326 48.1151 119.954C47.2996 119.722 46.4554 119.482 46.2389 119.42C45.939 119.333 45.7101 119.767 45.2753 121.247ZM53.1408 122.689C52.7067 125.185 52.6691 125.102 54.3199 125.29C55.1235 125.382 55.9718 125.509 56.2046 125.573C56.7725 125.73 56.8312 125.58 57.032 123.466L57.2051 121.644L56.4933 121.51C56.1016 121.437 55.2506 121.307 54.602 121.221L53.4231 121.066L53.1408 122.689Z" fill="white"/>
</svg>
