<svg width="124" height="124" viewBox="0 0 124 124" fill="none" xmlns="http://www.w3.org/2000/svg">
<path fill-rule="evenodd" clip-rule="evenodd" d="M22.6279 0.35377C19.161 1.23926 16.3357 3.38332 14.6233 6.42861C13.0084 9.29996 13.0632 8.21388 13.0593 37.4557L13.0557 63.8854L11.1485 64.2609C8.3086 64.8203 6.25603 65.9335 4.09853 68.0846C0.507145 71.665 -0.776255 76.2315 0.455528 81.0463C1.71057 85.9518 5.61869 89.8348 10.446 90.9725C11.7168 91.2722 15.0246 91.3313 30.6855 91.3342L49.4058 91.3379V94.8585C49.4058 98.8111 49.6207 99.6619 50.8375 100.528C51.6975 101.14 53.3667 101.257 54.2912 100.77C55.0863 100.351 63.8467 93.4211 65.1027 92.218C66.7217 90.6665 66.9246 88.7829 65.6467 87.1592C65.093 86.4552 55.4861 78.8119 54.3923 78.205C53.3754 77.6408 51.8846 77.665 50.9058 78.2617C49.643 79.0314 49.4058 79.9295 49.4058 83.9409V87.4616H33.1694H16.933L16.9359 49.4862C16.9383 17.1523 16.9907 11.3156 17.2888 10.1959C17.9751 7.61839 20.2261 5.25531 22.8702 4.33712C23.6818 4.05537 30.0755 4.00061 62.1283 4.00061H100.417L101.942 4.7044C103.839 5.58019 105.614 7.44928 106.394 9.39178C106.949 10.7732 106.953 10.8689 106.957 21.6861L106.96 32.5881L90.6793 32.6504L74.3988 32.7126L74.3218 28.6944L74.245 24.6759L73.3399 23.8474C72.0625 22.6779 70.4774 22.637 68.8838 23.732C66.3013 25.5071 58.3074 32.0767 57.8823 32.7737C57.2707 33.7767 57.2559 35.4939 57.8506 36.4687C58.2723 37.1602 67.3906 44.5646 69.2551 45.7299C70.34 46.408 71.7971 46.4371 72.8397 45.8014C74.1805 44.9842 74.3661 44.3071 74.3661 40.2316V36.5855H92.8538C112.886 36.5855 112.953 36.5894 115.216 37.9148C116.512 38.6739 118.042 40.2227 118.838 41.5794C119.796 43.2147 120.281 45.922 119.952 47.7986C119.224 51.9414 116.085 55.189 112.088 55.9356L110.959 56.1466V49.7736C110.959 45.9506 110.858 43.1354 110.707 42.7384C110.198 41.4001 108.859 41.0367 107.725 41.9287L107.092 42.4266L107.026 77.8448L106.96 113.263L106.398 114.655C105.613 116.599 103.835 118.469 101.942 119.343L100.417 120.046H62.1283C30.0755 120.046 23.6818 119.992 22.8702 119.71C21.2487 119.147 19.4535 117.8 18.522 116.448C17.0629 114.33 16.9391 113.457 16.9359 105.262C16.9328 97.3749 16.8991 97.1615 15.5757 96.6585C14.8952 96.3998 13.8563 96.7249 13.386 97.3434C12.8936 97.9917 12.9328 112.469 13.4327 114.59C14.3657 118.548 17.4994 121.931 21.6585 123.474C22.8166 123.903 24.5583 123.926 61.1449 123.987C86.5308 124.03 99.8732 123.968 100.766 123.803C105.436 122.942 109.61 118.856 110.603 114.176C110.892 112.81 110.951 108.16 110.954 86.3491L110.959 60.1617L112.866 59.7862C115.702 59.2275 117.758 58.1134 119.916 55.9654C122.021 53.8693 123.133 51.8701 123.716 49.1303C125.287 41.749 120.168 34.1619 112.781 32.921L110.959 32.6148L110.954 22.0628C110.951 13.834 110.873 11.1499 110.603 9.87074C109.615 5.21025 105.456 1.12491 100.808 0.24911C98.7219 -0.143847 24.1861 -0.0440325 22.6279 0.35377ZM70.4888 34.6474C70.4888 38.5115 70.443 41.6731 70.3873 41.6731C70.1284 41.6731 61.6436 34.8099 61.6436 34.6006C61.6436 34.3567 69.9799 27.6514 70.307 27.6323C70.4071 27.6265 70.4888 30.7832 70.4888 34.6474ZM24.071 33.304C23.1026 34.2719 23.3474 35.6307 24.6111 36.3038C25.3418 36.6926 48.8789 36.7047 49.7312 36.3166C50.9145 35.7776 51.1891 34.2278 50.2648 33.304L49.6701 32.7092H37.1679H24.6656L24.071 33.304ZM24.5665 51.1719C23.3401 51.875 23.1188 53.2091 24.071 54.1608L24.6656 54.7555H30.7175H36.7693L37.2714 54.1172C38.1174 53.042 37.8532 51.8079 36.6386 51.161C35.9107 50.7734 25.2448 50.7831 24.5665 51.1719ZM42.6204 51.1828C41.7029 51.6618 41.2939 52.6817 41.6625 53.5716C42.4714 55.5243 45.5284 54.9847 45.5284 52.8891C45.5284 51.4246 43.9416 50.4933 42.6204 51.1828ZM50.7386 51.1591C49.5129 51.8292 49.2538 53.3317 50.2088 54.2289L50.7698 54.7555H74.9429C90.2475 54.7555 99.2788 54.6686 99.5594 54.5184C100.744 53.8846 100.6 51.837 99.3265 51.1928C98.5125 50.7812 51.4896 50.7484 50.7386 51.1591ZM13.0557 77.7818V87.4836L12.1469 87.3199C8.82719 86.7222 5.69648 84.2353 4.58538 81.3136C3.02621 77.2137 4.50905 72.2375 8.0384 69.725C9.10006 68.9691 11.3622 68.0926 12.2681 68.086L13.0557 68.0802V77.7818ZM24.071 69.8863C23.1026 70.8542 23.3474 72.2131 24.6111 72.8861C25.4036 73.3079 51.4758 73.2781 52.3138 72.8543C53.2286 72.3916 53.6413 71.3673 53.2717 70.4755C53.1081 70.0806 52.7783 69.6528 52.5389 69.5246C52.2747 69.3834 46.7035 69.2916 38.3844 69.2916H24.6656L24.071 69.8863ZM57.9977 69.8863C57.0356 70.8479 57.3647 72.4081 58.6411 72.9367C60.6178 73.7551 62.3287 71.5928 61.0201 69.9299C60.3319 69.0551 58.8502 69.0338 57.9977 69.8863ZM65.8556 69.5355C65.1495 69.9479 64.8262 71.0991 65.1984 71.8756C66.1547 73.8704 69.0348 73.2858 69.0348 71.0969C69.0348 69.6903 67.1637 68.7714 65.8556 69.5355ZM73.6813 69.8522C73.0263 70.5494 72.9982 71.7096 73.6176 72.4747L74.0807 73.0467L86.4007 73.1073C99.659 73.1724 99.6319 73.1746 100.234 71.9199C100.599 71.1577 100.243 69.8946 99.5594 69.5287C99.2868 69.3829 94.3223 69.2916 86.6621 69.2916H74.2084L73.6813 69.8522ZM58.0139 85.9072L62.4918 89.4407L59.5232 91.7863C54.5045 95.7517 53.6224 96.4255 53.4498 96.4255C53.358 96.4255 53.2831 93.2639 53.2831 89.3997C53.2831 85.5356 53.34 82.374 53.4096 82.374C53.4794 82.374 55.5513 83.964 58.0139 85.9072ZM74.2001 87.7055C73.0631 88.1637 72.7861 89.9383 73.7152 90.8112L74.2762 91.3379L86.7407 91.3301C100.157 91.3219 99.7816 91.3575 100.28 90.0463C100.584 89.2466 100.289 88.3805 99.5303 87.8494C99.0396 87.5059 97.5929 87.4633 86.8529 87.4768C80.1851 87.4853 74.4914 87.5883 74.2001 87.7055Z" fill="white"/>
</svg>
