<svg width="24" height="24" viewBox="0 0 24 24" fill="none" xmlns="http://www.w3.org/2000/svg">
<g clip-path="url(#clip0_0_93)">
<path d="M9.279 13.52H8.34V18.547H7.432V13.52H6.492V12.666H9.28V13.52H9.279ZM14.674 15.241V17.647C14.674 18.184 14.474 18.601 13.938 18.601C13.642 18.601 13.397 18.493 13.171 18.213V18.546H12.358V12.666H13.171V14.559C13.354 14.337 13.6 14.154 13.889 14.154C14.479 14.154 14.674 14.653 14.674 15.241ZM13.844 15.29C13.844 15.144 13.817 15.033 13.758 14.957C13.66 14.828 13.479 14.814 13.338 14.886L13.171 15.018V17.721L13.361 17.874C13.493 17.94 13.685 17.945 13.774 17.829C13.82 17.768 13.843 17.668 13.843 17.53V15.29H13.844ZM11.497 9.431C11.726 9.431 11.851 9.248 11.851 9V6.881C11.851 6.626 11.74 6.447 11.48 6.447C11.243 6.447 11.127 6.632 11.127 6.881V9C11.128 9.24 11.264 9.431 11.497 9.431ZM10.764 17.501C10.665 17.624 10.447 17.826 10.289 17.826C10.117 17.826 10.074 17.708 10.074 17.534V14.209H9.269V17.835C9.269 18.715 9.866 18.72 10.3 18.471C10.46 18.379 10.615 18.244 10.764 18.068V18.547H11.571V14.209H10.764V17.501ZM24 5V19C24 21.761 21.762 24 19 24H5C2.239 24 0 21.761 0 19V5C0 2.239 2.239 0 5 0H19C21.762 0 24 2.239 24 5ZM13.434 9.427C13.434 9.877 13.571 10.24 14.026 10.24C14.282 10.24 14.637 10.107 15.005 9.671V10.174H15.852V5.62H15.005V9.077C14.901 9.206 14.672 9.418 14.507 9.418C14.325 9.418 14.281 9.294 14.281 9.111V5.62H13.434V9.427ZM10.257 6.806V9.039C10.257 9.842 10.676 10.259 11.497 10.259C12.179 10.259 12.715 9.803 12.715 9.039V6.806C12.715 6.093 12.184 5.582 11.497 5.582C10.752 5.582 10.257 6.075 10.257 6.806ZM7.102 4L8.237 7.67V10.174H9.19V7.67L10.3 4H9.331L8.72 6.468L8.062 4H7.102ZM18.666 15.667C18.652 12.689 18.434 11.551 16.555 11.422C14.821 11.304 9.178 11.304 7.446 11.422C5.57 11.55 5.348 12.684 5.335 15.667C5.349 18.645 5.568 19.784 7.446 19.912C9.178 20.03 14.821 20.03 16.555 19.912C18.432 19.783 18.652 18.65 18.666 15.667ZM17.655 15.375V16.479H16.113V17.297C16.113 17.622 16.14 17.904 16.465 17.904C16.805 17.904 16.825 17.675 16.825 17.297V16.996H17.655V17.322C17.655 18.158 17.297 18.664 16.447 18.664C15.676 18.664 15.283 18.103 15.283 17.322V15.375C15.283 14.622 15.78 14.1 16.508 14.1C17.281 14.099 17.655 14.591 17.655 15.375ZM16.825 15.367C16.825 15.074 16.763 14.859 16.472 14.859C16.173 14.859 16.113 15.069 16.113 15.367V15.806H16.825V15.367Z" fill="#DE425B"/>
</g>
<defs>
<clipPath id="clip0_0_93">
<rect width="24" height="24" fill="white"/>
</clipPath>
</defs>
</svg>
